<svg xmlns="http://www.w3.org/2000/svg" xmlns:xlink="http://www.w3.org/1999/xlink" viewBox="0 0 750 500"><defs><style>.cls-1{fill:none;}.cls-2{isolation:isolate;}.cls-3{fill:url(#Degradado_sin_nombre_8);}.cls-4,.cls-5,.cls-7{fill:#f9fafd;}.cls-4{opacity:0.26;}.cls-13,.cls-17,.cls-20,.cls-24,.cls-25,.cls-28,.cls-29,.cls-33,.cls-4,.cls-5{mix-blend-mode:overlay;}.cls-32,.cls-5{opacity:0.33;}.cls-6{fill:#5a9cd4;}.cls-8{fill:url(#Degradado_sin_nombre_7);}.cls-9{fill:url(#Degradado_sin_nombre_7-2);}.cls-10{fill:url(#Degradado_sin_nombre_7-3);}.cls-11{fill:url(#Degradado_sin_nombre_7-4);}.cls-12{fill:url(#Degradado_sin_nombre_7-5);}.cls-13{fill:url(#Degradado_sin_nombre_260);}.cls-14{clip-path:url(#clip-path);}.cls-15{fill:url(#Degradado_sin_nombre_6);}.cls-16{opacity:0.53;}.cls-16,.cls-18,.cls-22,.cls-23,.cls-32,.cls-34,.cls-41,.cls-42,.cls-43{mix-blend-mode:multiply;}.cls-17,.cls-24,.cls-28{opacity:0.7;}.cls-17{fill:url(#Degradado_sin_nombre_101);}.cls-18{opacity:0.49;}.cls-19{fill:#c4c4c4;}.cls-20{fill:url(#Degradado_sin_nombre_260-2);}.cls-21{fill:url(#Degradado_sin_nombre_5);}.cls-22{fill:#d48024;opacity:0.56;}.cls-23,.cls-35{fill:#969499;}.cls-23{opacity:0.8;}.cls-24{fill:url(#Degradado_sin_nombre_101-2);}.cls-25{fill:url(#Degradado_sin_nombre_260-3);}.cls-26{clip-path:url(#clip-path-2);}.cls-27{fill:url(#Degradado_sin_nombre_6-2);}.cls-28{fill:url(#Degradado_sin_nombre_101-3);}.cls-29{fill:url(#Degradado_sin_nombre_260-4);}.cls-30{clip-path:url(#clip-path-3);}.cls-31{fill:url(#Degradado_sin_nombre_5-2);}.cls-32{fill:#ef4e31;}.cls-33{opacity:0.83;fill:url(#Degradado_sin_nombre_101-4);}.cls-34{opacity:0.46;}.cls-36{fill:url(#Degradado_sin_nombre_5-3);}.cls-37{fill:url(#Degradado_sin_nombre_5-4);}.cls-38{fill:url(#Degradado_sin_nombre_3);}.cls-39{fill:url(#Degradado_sin_nombre_4);}.cls-40{fill:#1285a2;}.cls-41,.cls-48{fill:#dcdde0;}.cls-43{fill:#cacbce;}.cls-44{fill:#281c4b;}.cls-45{fill:url(#Degradado_sin_nombre_31);}.cls-46{fill:url(#Degradado_sin_nombre_31-2);}.cls-47{fill:url(#Degradado_sin_nombre_31-3);}.cls-49{font-size:39px;font-family:DIN-Bold, DIN;font-weight:700;}.cls-50{letter-spacing:0em;}.cls-51{letter-spacing:0em;}</style><linearGradient id="Degradado_sin_nombre_8" x1="276" y1="250" x2="846.01" y2="250" gradientUnits="userSpaceOnUse"><stop offset="0.01" stop-color="#310054"/><stop offset="0.54" stop-color="#270043"/><stop offset="1" stop-color="#1c0030"/></linearGradient><linearGradient id="Degradado_sin_nombre_7" x1="188.98" y1="464.25" x2="307" y2="464.25" gradientUnits="userSpaceOnUse"><stop offset="0" stop-color="#4cd6f0"/><stop offset="1" stop-color="#4cd6f0" stop-opacity="0"/></linearGradient><linearGradient id="Degradado_sin_nombre_7-2" x1="185.31" y1="101.59" x2="303.33" y2="101.59" xlink:href="#Degradado_sin_nombre_7"/><linearGradient id="Degradado_sin_nombre_7-3" x1="651.98" y1="34.25" x2="770" y2="34.25" xlink:href="#Degradado_sin_nombre_7"/><linearGradient id="Degradado_sin_nombre_7-4" x1="657.98" y1="261.92" x2="776" y2="261.92" xlink:href="#Degradado_sin_nombre_7"/><linearGradient id="Degradado_sin_nombre_7-5" x1="462.98" y1="162.75" x2="581" y2="162.75" xlink:href="#Degradado_sin_nombre_7"/><linearGradient id="Degradado_sin_nombre_260" x1="407.1" y1="46.76" x2="442.8" y2="84.03" gradientTransform="translate(421.39 -364.31) rotate(81.4)" gradientUnits="userSpaceOnUse"><stop offset="0.01" stop-color="#fff"/><stop offset="0.07" stop-color="#fff" stop-opacity="0.89"/><stop offset="0.22" stop-color="#fff" stop-opacity="0.66"/><stop offset="0.36" stop-color="#fff" stop-opacity="0.46"/><stop offset="0.5" stop-color="#fff" stop-opacity="0.29"/><stop offset="0.64" stop-color="#fff" stop-opacity="0.16"/><stop offset="0.77" stop-color="#fff" stop-opacity="0.07"/><stop offset="0.89" stop-color="#fff" stop-opacity="0.02"/><stop offset="1" stop-color="#fff" stop-opacity="0"/></linearGradient><clipPath id="clip-path"><circle class="cls-1" cx="422.64" cy="62.79" r="19.52"/></clipPath><linearGradient id="Degradado_sin_nombre_6" x1="410.25" y1="49.86" x2="439.06" y2="79.93" gradientUnits="userSpaceOnUse"><stop offset="0" stop-color="#61c6f2"/><stop offset="0.17" stop-color="#58bbeb"/><stop offset="0.46" stop-color="#409fda"/><stop offset="0.83" stop-color="#1971be"/><stop offset="0.89" stop-color="#1269b9"/></linearGradient><linearGradient id="Degradado_sin_nombre_101" x1="435.89" y1="40.21" x2="442.39" y2="51.98" gradientTransform="matrix(1.09, -0.07, 0.07, 1.18, -62.93, 31.49)" gradientUnits="userSpaceOnUse"><stop offset="0" stop-color="#fff"/><stop offset="0.1" stop-color="#fff" stop-opacity="0.93"/><stop offset="0.29" stop-color="#fff" stop-opacity="0.76"/><stop offset="0.57" stop-color="#fff" stop-opacity="0.49"/><stop offset="0.9" stop-color="#fff" stop-opacity="0.12"/><stop offset="1" stop-color="#fff" stop-opacity="0"/></linearGradient><linearGradient id="Degradado_sin_nombre_260-2" x1="614.93" y1="85.44" x2="677.4" y2="147.9" gradientTransform="matrix(1, 0, 0, 1, 0, 0)" xlink:href="#Degradado_sin_nombre_260"/><linearGradient id="Degradado_sin_nombre_5" x1="612.02" y1="111.7" x2="670.38" y2="111.7" gradientTransform="translate(395.54 -491.01) rotate(57.94)" gradientUnits="userSpaceOnUse"><stop offset="0" stop-color="#fee62a"/><stop offset="0.14" stop-color="#fdd82b"/><stop offset="0.4" stop-color="#f9b42c"/><stop offset="0.75" stop-color="#f37b2f"/><stop offset="0.99" stop-color="#ef4e31"/></linearGradient><linearGradient id="Degradado_sin_nombre_101-2" x1="626.55" y1="85.16" x2="636.79" y2="103.71" xlink:href="#Degradado_sin_nombre_101"/><linearGradient id="Degradado_sin_nombre_260-3" x1="283.23" y1="332.27" x2="386.83" y2="440.43" gradientTransform="translate(621.22 -27.2) rotate(76.73)" xlink:href="#Degradado_sin_nombre_260"/><clipPath id="clip-path-2"><circle class="cls-1" cx="328.32" cy="378.79" r="56.64"/></clipPath><linearGradient id="Degradado_sin_nombre_6-2" x1="292.37" y1="341.26" x2="375.95" y2="428.52" xlink:href="#Degradado_sin_nombre_6"/><linearGradient id="Degradado_sin_nombre_101-3" x1="317.28" y1="279.78" x2="336.13" y2="313.94" xlink:href="#Degradado_sin_nombre_101"/><linearGradient id="Degradado_sin_nombre_260-4" x1="466.67" y1="480.29" x2="789.24" y2="480.29" gradientTransform="translate(523.54 -303.36) rotate(45)" xlink:href="#Degradado_sin_nombre_260"/><clipPath id="clip-path-3"><circle class="cls-1" cx="628.55" cy="481.03" r="138.35"/></clipPath><linearGradient id="Degradado_sin_nombre_5-2" x1="555.49" y1="389.78" x2="714.29" y2="588.14" gradientTransform="matrix(1, 0, 0, 1, 0, 0)" xlink:href="#Degradado_sin_nombre_5"/><linearGradient id="Degradado_sin_nombre_101-4" x1="539.08" y1="320.48" x2="587.54" y2="408.3" xlink:href="#Degradado_sin_nombre_101"/><linearGradient id="Degradado_sin_nombre_5-3" x1="382" y1="64.82" x2="462" y2="64.82" gradientTransform="matrix(1, 0, 0, 1, 0, 0)" xlink:href="#Degradado_sin_nombre_5"/><linearGradient id="Degradado_sin_nombre_5-4" x1="317.28" y1="262.41" x2="434.93" y2="262.41" gradientTransform="matrix(1, 0, 0, 1, 0, 0)" xlink:href="#Degradado_sin_nombre_5"/><linearGradient id="Degradado_sin_nombre_3" x1="361.07" y1="262.42" x2="434.53" y2="262.42" gradientUnits="userSpaceOnUse"><stop offset="0" stop-color="#f5e55e"/><stop offset="1" stop-color="#da9231"/></linearGradient><linearGradient id="Degradado_sin_nombre_4" x1="380.93" y1="262.42" x2="434.35" y2="262.42" gradientUnits="userSpaceOnUse"><stop offset="0" stop-color="#f5ea91"/><stop offset="1" stop-color="#da9231"/></linearGradient><linearGradient id="Degradado_sin_nombre_31" x1="208.11" y1="-1090.81" x2="208.11" y2="-1065.06" gradientTransform="translate(-580.16 61.59) rotate(89.61)" gradientUnits="userSpaceOnUse"><stop offset="0" stop-color="#fff"/><stop offset="0.07" stop-color="#fff" stop-opacity="0.85"/><stop offset="0.21" stop-color="#fff" stop-opacity="0.6"/><stop offset="0.35" stop-color="#fff" stop-opacity="0.38"/><stop offset="0.47" stop-color="#fff" stop-opacity="0.22"/><stop offset="0.58" stop-color="#fff" stop-opacity="0.1"/><stop offset="0.68" stop-color="#fff" stop-opacity="0.03"/><stop offset="0.74" stop-color="#fff" stop-opacity="0"/></linearGradient><linearGradient id="Degradado_sin_nombre_31-2" x1="208.92" y1="-1111.69" x2="208.92" y2="-1097.34" xlink:href="#Degradado_sin_nombre_31"/><linearGradient id="Degradado_sin_nombre_31-3" x1="207.15" y1="-1054.94" x2="207.15" y2="-1040.6" xlink:href="#Degradado_sin_nombre_31"/></defs><title>salto de tiempo</title><g class="cls-2"><g id="Background"><rect class="cls-3" width="750" height="500"/><path class="cls-4" d="M812,239.41c-.36-.78-.73-1.6-1.09-2.43-27.47-1.46-55.06-10.54-79.86-23-38.81-19.45-73.17-46.69-111-68s-81.38-36.87-124.19-29.67c-33.53,5.64-63,24.54-93.17,40.27s-64.27,28.88-97.51,21.74c-34.55-7.42-61-35.38-80.14-65.11S191.65,50.49,169,23.37,111.91-24.87,77-19.13L-40-18V553.89H186.32c1.41-30.75,3.05-62.46,16.33-90.23s41.36-50.87,72.06-48.53c26.29,2,52.29,21.72,76.79,12,33.76-13.45,29.08-67.33,58.49-88.68,16.7-12.14,40.54-9.92,58.74-.15s32.06,25.8,45.71,41.29,28,31.21,46.72,40c33.18,15.58,72.86,6.1,105.77-10C735.32,376.05,789,314,813.19,241.93,812.78,241.1,812.38,240.26,812,239.41Z"/><path class="cls-5" d="M754.07-11.9H198.38C226,33.77,275.49,66.5,328.9,70.93c42.9,3.57,85.2-9.39,127-19.61s86.59-17.68,127.28-3.6c30.24,10.46,55.24,31.84,79.33,52.89s48.78,42.7,78.76,53.88a110.17,110.17,0,0,0,12.77,3.88Z"/><path class="cls-5" d="M787.64,316.64c-18.62,33.46-37.45,67.2-62.78,95.92s-58,52.41-95.51,60.17c-72.05,14.91-142.93-30.35-216.46-33.16C335.55,436.62,258.91,486.25,230,558h556.1Z"/><path class="cls-6" d="M388.17,28.67A1.67,1.67,0,1,1,386.5,27,1.66,1.66,0,0,1,388.17,28.67Z"/><circle class="cls-6" cx="126.17" cy="30.5" r="1.67"/><path class="cls-6" d="M420.5,115a1.67,1.67,0,1,1-1.67-1.67A1.67,1.67,0,0,1,420.5,115Z"/><path class="cls-6" d="M347.33,91.67a1.67,1.67,0,0,1-3.33,0,1.67,1.67,0,1,1,3.33,0Z"/><path class="cls-6" d="M416.33,188.33a1.67,1.67,0,1,1-1.66-1.66A1.66,1.66,0,0,1,416.33,188.33Z"/><path class="cls-6" d="M578.33,22.67a1.67,1.67,0,0,1-3.33,0,1.67,1.67,0,1,1,3.33,0Z"/><circle class="cls-6" cx="339.25" cy="55" r="1.67"/><circle class="cls-6" cx="357.5" cy="159" r="1.67"/><path class="cls-6" d="M255.67,436.33a1.67,1.67,0,1,1-1.67-1.66A1.67,1.67,0,0,1,255.67,436.33Z"/><path class="cls-6" d="M534.33,321.67a1.67,1.67,0,0,1-3.33,0,1.67,1.67,0,1,1,3.33,0Z"/><path class="cls-6" d="M629.67,286.33a1.67,1.67,0,1,1-1.67-1.66A1.67,1.67,0,0,1,629.67,286.33Z"/><path class="cls-6" d="M549.33,198.33a1.67,1.67,0,1,1-1.66-1.66A1.66,1.66,0,0,1,549.33,198.33Z"/><path class="cls-6" d="M577.67,86.33A1.67,1.67,0,1,1,576,84.67,1.67,1.67,0,0,1,577.67,86.33Z"/><path class="cls-6" d="M402.33,315.67a1.67,1.67,0,0,1-3.33,0,1.67,1.67,0,1,1,3.33,0Z"/><path class="cls-6" d="M450.33,431a1.67,1.67,0,1,1-1.66-1.67A1.66,1.66,0,0,1,450.33,431Z"/><path class="cls-6" d="M391,468a1.67,1.67,0,1,1-1.67-1.67A1.67,1.67,0,0,1,391,468Z"/><path class="cls-6" d="M217,388a1.67,1.67,0,1,1-1.67-1.67A1.67,1.67,0,0,1,217,388Z"/><circle class="cls-7" cx="200.25" cy="38.5" r="2.67"/><path class="cls-7" d="M305.33,127.67a2.67,2.67,0,1,1-2.66-2.67A2.66,2.66,0,0,1,305.33,127.67Z"/><path class="cls-7" d="M447.67,371.33a2.67,2.67,0,1,1-2.67-2.66A2.67,2.67,0,0,1,447.67,371.33Z"/><path class="cls-7" d="M617,212a2.67,2.67,0,1,1-2.67-2.67A2.67,2.67,0,0,1,617,212Z"/><path class="cls-7" d="M203.33,438.33a2.67,2.67,0,1,1-2.66-2.66A2.66,2.66,0,0,1,203.33,438.33Z"/><path class="cls-7" d="M724,313a2.67,2.67,0,1,1-2.67-2.67A2.67,2.67,0,0,1,724,313Z"/><path class="cls-7" d="M81.33,480.33a2.67,2.67,0,1,1-2.66-2.66A2.66,2.66,0,0,1,81.33,480.33Z"/><circle class="cls-7" cx="204" cy="133" r="2.67"/><path class="cls-7" d="M502.67,82.83A2.67,2.67,0,1,1,500,80.17,2.67,2.67,0,0,1,502.67,82.83Z"/><path class="cls-7" d="M728,73.67A2.67,2.67,0,1,1,725.33,71,2.66,2.66,0,0,1,728,73.67Z"/><rect class="cls-1" width="750" height="500"/></g><g id="Objects"><path class="cls-8" d="M194.49,459l112.3,5a.22.22,0,0,1,.21.23.22.22,0,0,1-.21.21l-112.3,5A5.27,5.27,0,0,1,194,459Z"/><path class="cls-9" d="M190.82,96.32l112.3,5.05a.22.22,0,0,1,0,.44l-112.3,5a5.27,5.27,0,0,1-.47-10.53Z"/><path class="cls-10" d="M657.49,29l112.3,5a.22.22,0,0,1,.21.23.22.22,0,0,1-.21.21l-112.3,5.05A5.27,5.27,0,0,1,657,29Z"/><path class="cls-11" d="M663.49,256.66l112.3,5a.22.22,0,0,1,.21.23.23.23,0,0,1-.21.21l-112.3,5a5.27,5.27,0,0,1-.48-10.52A3.84,3.84,0,0,1,663.49,256.66Z"/><path class="cls-12" d="M468.49,157.49l112.3,5a.22.22,0,0,1,.21.23.22.22,0,0,1-.21.21L468.49,168a5.27,5.27,0,0,1-.48-10.53A3.84,3.84,0,0,1,468.49,157.49Z"/><circle class="cls-13" cx="422.46" cy="62.79" r="24.19" transform="translate(297.22 471.12) rotate(-81.4)"/><g class="cls-14"><circle class="cls-15" cx="422.64" cy="62.79" r="19.52"/><g class="cls-16"><path class="cls-6" d="M429.54,42.66a8.73,8.73,0,0,1-3.41,9.08c-2.18,1.5-5.06,2-6.82,4a10.86,10.86,0,0,0-2.08,5.35,13,13,0,0,1-1.86,5.46c-1.15,1.56-3.4,2.51-5.09,1.56-1.45-.82-2-2.66-2-4.32a23.47,23.47,0,0,0-.11-5,14,14,0,0,0-1.52-3.37,8.23,8.23,0,0,1-1.2-3.47,6,6,0,0,1,3.13-5.66,28.58,28.58,0,0,1,6.19-3c-.41,1-1.19,1.81-1.4,2.94a2.67,2.67,0,0,0,1.28,3,3.26,3.26,0,0,0,2.63-.26,9.58,9.58,0,0,0,5.28-6.45Z"/><path class="cls-6" d="M431.84,47.62a18,18,0,0,0-1.52,4.58,8.51,8.51,0,0,1-2.16,4.25c-1.29,1.19-3.1,1.54-4.63,2.39s-3.16,3-3.41,7.31a4.1,4.1,0,0,0,5.7,4.1C433.08,67,442.55,59.34,439.05,48,438,44.63,434,43.93,431.84,47.62Z"/><path class="cls-6" d="M401.36,57.33c1.28-.5,2.15,0,2.76,1.25a9.41,9.41,0,0,1,.61,4.06c.07,4.39,1.58,8.73,5.81,10.75a22.86,22.86,0,0,0,9.28,2.31c9.38.22,20.42-7.43,21.57-17.17a6.84,6.84,0,0,0,.08-2.7c2.11,5.41,2.6,9.17,0,14.39a13.21,13.21,0,0,1-4.64,5.3c-13.87,9.06-25.64,3.91-28.56,1.75s-4.51-5.45-5.77-8.86A22.69,22.69,0,0,1,401.36,57.33Z"/></g></g><path class="cls-17" d="M427,48.94c-2.31-3-8.12-1.76-13,2.68s-6.95,10.44-4.64,13.4,8.12,1.77,13-2.67S429.3,51.91,427,48.94Z"/><g class="cls-18"><path class="cls-19" d="M428.11,44.06A19.52,19.52,0,0,1,413,79.74a19.52,19.52,0,1,0,15.15-35.68Z"/></g><path class="cls-20" d="M641.2,149.51A37.81,37.81,0,1,1,679,111.7,37.85,37.85,0,0,1,641.2,149.51Z"/><circle class="cls-21" cx="641.2" cy="111.7" r="29.18" transform="translate(206.2 595.84) rotate(-57.94)"/><path class="cls-22" d="M622.89,122.21c2.72-2.2,6.34-3,9.83-3.17s7,.1,10.5-.28a12.09,12.09,0,0,0,4.93-1.45,5.69,5.69,0,0,0,2.84-4.12c.28-2.78-2.22-5.25-5-5.82s-5.56.32-8.12,1.44-5,2.51-7.8,3c-3.87.71-7.75-.41-11.26-2-1.92-.87-4.13-2.58-6.39-3.16a28.66,28.66,0,0,0-.44,5,29,29,0,0,0,4.56,15.66l.07,0C619.23,126.47,620.78,123.92,622.89,122.21Z"/><path class="cls-22" d="M665.91,117.46A46,46,0,0,1,642.75,125a9.55,9.55,0,0,0-3.57.56,2.87,2.87,0,0,0-1.81,2.85c.31,1.87,2.77,2.34,4.67,2.23,9.34-.57,18.07-4.6,26.48-8.71a29,29,0,0,0,1.76-7.92C668.61,115.07,667,116.75,665.91,117.46Z"/><path class="cls-22" d="M627.91,106.56c6.69-.06,13.07-2.69,19.24-5.27.67-.28,1.41-.63,1.61-1.32.34-1.13-1-2-2.15-2.28-6.28-1.3-12.44,4.43-18.72,3.12-4-.82-6.86-4.25-10.55-5.9a29.2,29.2,0,0,0-3.4,6.36,20.86,20.86,0,0,0,2.36,2A20.49,20.49,0,0,0,627.91,106.56Z"/><path class="cls-22" d="M654.25,103.52a6.48,6.48,0,0,0-1.58,3.62,3.41,3.41,0,0,0,1.81,3.3c1.36.6,3,0,4.14-1A38.62,38.62,0,0,1,662,106.6a11.69,11.69,0,0,1,5.12-1.33c.82-.07,1.65-.14,2.47-.26a29.06,29.06,0,0,0-3-7.7c-1.85.38-3.49.88-4.34,1.14A16.3,16.3,0,0,0,654.25,103.52Z"/><path class="cls-22" d="M629.44,94.27c4.09.85,8.31.61,12.49.37,5-.28,10.1-.6,14.6-2.75a4.33,4.33,0,0,0,2.56-2.48,1.81,1.81,0,0,0,.07-.69,28.39,28.39,0,0,0-4.6-3,17.46,17.46,0,0,0-4.26,1.46,32.64,32.64,0,0,1-24.9,0,30.15,30.15,0,0,0-4.14,3.24l.22.19A17.88,17.88,0,0,0,629.44,94.27Z"/><path class="cls-22" d="M630.31,130.9c1.19-.36,2.35-1.4,2.22-2.65a2.5,2.5,0,0,0-2.23-2,6.51,6.51,0,0,0-3.14.58,67,67,0,0,0-7.87,4.14,29.24,29.24,0,0,0,3,2.92,11.27,11.27,0,0,1,4.34-2.41C627.82,131.2,629.11,131.27,630.31,130.9Z"/><path class="cls-22" d="M648,134.34A1.68,1.68,0,0,0,646.7,133a4.53,4.53,0,0,0-1.94,0,53.72,53.72,0,0,0-15.71,5.22,28.91,28.91,0,0,0,6.92,2.18l10-4C646.91,136,648.06,135.38,648,134.34Z"/><path class="cls-23" d="M641.2,82.52c-.66,0-1.31,0-2,.07a29.18,29.18,0,0,1-6.39,57.08,29.52,29.52,0,0,0,8.35,1.21,29.18,29.18,0,0,0,0-58.36Z"/><path class="cls-24" d="M645.15,88.78C641.51,84.11,632.34,86,624.67,93s-10.95,16.46-7.32,21.13,12.81,2.79,20.48-4.21S648.78,93.45,645.15,88.78Z"/><circle class="cls-25" cx="327.79" cy="378.79" r="70.21" transform="translate(-116.13 610.88) rotate(-76.73)"/><g class="cls-26"><circle class="cls-27" cx="328.32" cy="378.79" r="56.64"/><g class="cls-16"><path class="cls-6" d="M348.35,320.37a25.34,25.34,0,0,1-9.92,26.35c-6.32,4.36-14.68,5.8-19.77,11.55-3.74,4.21-5,10-6.06,15.53s-2,11.32-5.38,15.84-9.86,7.27-14.77,4.52c-4.2-2.36-5.7-7.7-5.8-12.52s.78-9.71-.33-14.4c-.82-3.49-2.7-6.62-4.41-9.77s-3.31-6.5-3.49-10.08c-.37-7.26,3-12.71,9.08-16.45,5.12-3.15,12.34-7.12,18-8.73-1.18,2.91-3.46,5.24-4.06,8.52s.64,7.19,3.7,8.55c2.41,1.07,5.24.34,7.64-.75A27.8,27.8,0,0,0,328.1,319.8Z"/><path class="cls-6" d="M355,334.75c-2.32,4.05-3.21,8.77-4.4,13.31s-2.85,9.19-6.26,12.32c-3.76,3.45-9,4.49-13.44,6.93-4.72,2.59-9.17,8.63-9.9,21.22-.53,9.05,8.45,15.5,16.54,11.9,21.08-9.38,48.55-31.66,38.41-64.58C372.94,326.07,361.17,324.05,355,334.75Z"/><path class="cls-6" d="M266.55,363c3.74-1.45,6.25,0,8,3.62s1.71,7.77,1.77,11.77c.21,12.76,4.59,25.36,16.86,31.19a66.19,66.19,0,0,0,26.94,6.73c27.21.63,59.27-21.56,62.6-49.83.24-2.11,1-5.82.21-7.84,6.12,15.7,7.56,26.61.17,41.75a38.57,38.57,0,0,1-13.47,15.4c-40.25,26.28-74.41,11.35-82.89,5.07S273.67,405,270,395.1A66.31,66.31,0,0,1,266.55,363Z"/></g></g><path class="cls-28" d="M341,338.6c-6.69-8.6-23.57-5.13-37.7,7.76s-20.16,30.29-13.47,38.89,23.57,5.13,37.7-7.75S347.66,347.2,341,338.6Z"/><g class="cls-18"><path class="cls-19" d="M344.18,324.42a56.63,56.63,0,0,1-44,103.54,56.64,56.64,0,1,0,44-103.54Z"/></g><circle class="cls-29" cx="627.95" cy="480.29" r="161.29" transform="translate(-155.69 584.7) rotate(-45)"/><g class="cls-30"><circle class="cls-31" cx="628.55" cy="481.03" r="138.35"/><path class="cls-32" d="M607.55,352.89c-2.79,1.77-5.61,4.61-5,7.85s4.36,4.85,7.62,5.57a56.93,56.93,0,0,0,27.54-.73,16.45,16.45,0,0,0,5.69-2.55,6.74,6.74,0,0,0,2.8-5.35c-.24-6.36-10.06-9.62-15.09-10.16A36.84,36.84,0,0,0,607.55,352.89Z"/><path class="cls-32" d="M606.2,402.32a11.89,11.89,0,0,0-4.05,4.66,6.2,6.2,0,0,0,.38,6c1.94,2.7,5.92,2.72,9.21,2.18a60.8,60.8,0,0,0,10.48-2.68c2.8-1,5.69-2.33,7.28-4.83,3.36-5.26-1.4-8.64-6-9.34A23.24,23.24,0,0,0,606.2,402.32Z"/><path class="cls-32" d="M613.75,448.36c1.45,1.48,3.78,1.66,5.83,1.37,5.8-.8,11.17-9.38,3.39-11.57C618,436.77,608.68,443.2,613.75,448.36Z"/><path class="cls-32" d="M633.62,388.74c1.45,1.48,3.78,1.65,5.83,1.37,5.81-.8,11.17-9.38,3.39-11.57C637.9,377.15,628.56,383.58,633.62,388.74Z"/><path class="cls-32" d="M679.71,461.24c-.91,2.82-.53,6.41,2,8a7.35,7.35,0,0,0,5.46.65,12.84,12.84,0,0,0,6.83-3.58,9.07,9.07,0,0,0,2.55-7.15C695.16,447.86,682.05,454,679.71,461.24Z"/><path class="cls-32" d="M639.38,444.2c-4.13,4.73-5.31,11.33-5.59,17.61a80.06,80.06,0,0,0,1.73,20.36c1.21,5.55,3.61,11.65,8.92,13.68,4,1.54,8.66.2,12-2.45S662.1,487,664,483.14c3.8-7.58,6.6-16.07,5.33-24.45C667.44,446,650.62,431.29,639.38,444.2Z"/><path class="cls-32" d="M568,436.51c-4.28,5.52-6.83,12.67-5.64,19.54s6.68,13.16,13.6,14.05a18.33,18.33,0,0,0,12.07-3.17,26.18,26.18,0,0,0,11.75-21.87c-.08-7.14-4.08-18.33-11.94-20.28C580.39,422.91,572.13,431.25,568,436.51Z"/><path class="cls-32" d="M553.69,375.55a44.29,44.29,0,0,0-18,26c-1.13,4.7-1.1,10.49,2.77,13.38s9.54,1.23,14-.85a121.33,121.33,0,0,0,27.71-17.93c3.94-3.39,7.79-7.23,9.49-12.14,2.47-7.12-.76-15.3-8.55-16C571.61,367.22,561.49,370.26,553.69,375.55Z"/><path class="cls-32" d="M679.36,490.62c-3.67,2.56-6,6.62-7.86,10.67A101.2,101.2,0,0,0,663,529.55c-.75,5.11-1,10.74,1.93,15a14,14,0,0,0,10.54,5.61,22.65,22.65,0,0,0,11.85-2.83,32.78,32.78,0,0,0,9.56-50.65C692,490.93,687.53,484.92,679.36,490.62Z"/><path class="cls-32" d="M594.17,476.16c-1.08,4.61,1.26,9.6,5.06,12.41s8.79,3.68,13.49,3.19c8.15-.84,17.16-8.06,13.36-17.14-3-7.15-14.24-9-21-7.77C600.25,467.77,595.36,471.1,594.17,476.16Z"/><path class="cls-32" d="M712.86,493.63a2.66,2.66,0,0,0,1.31,2.3c3.05,1.58,9.52-4.59,6.53-7.68C717.23,484.67,712.73,490.07,712.86,493.63Z"/><path class="cls-32" d="M715.64,448.32c-2.36.86-4.8,2.66-4.8,5.18s2.35,4.25,4.54,5.42a20,20,0,0,0,8.66,2.73,9.29,9.29,0,0,0,8-3.67C738.75,448,721.07,446.36,715.64,448.32Z"/><path class="cls-32" d="M650.25,392.85c-5.26,6.75-4.94,16.86-.36,24.1S662.6,428.69,671,430.23c6,1.1,12.82.6,17.22-3.62,5.34-5.12,5.11-14.1,1.51-20.55C683,393.93,662.19,377.52,650.25,392.85Z"/><path class="cls-32" d="M686.52,366.63c-2.94.3-5.92,2.42-6.15,5.37-.25,3.34,3,5.92,6.08,7.13a12.8,12.8,0,0,0,7.66.81,6.91,6.91,0,0,0,5.24-5.2C700.33,368.82,690.8,366.19,686.52,366.63Z"/><path class="cls-32" d="M706.83,390.33c-2.59,3.49-1.54,8.43,0,12.48a64.64,64.64,0,0,0,11.24,18.72c2.48,2.87,5.55,5.69,9.33,6,4.14.29,8-2.82,9.48-6.71C741.08,409.62,718.29,374.9,706.83,390.33Z"/><path class="cls-32" d="M739.07,489.76a6.28,6.28,0,0,0,5.38,4.84c3.29.22,6-2.6,7.55-5.53,2.19-4.16,1.68-11.32-4.53-11.15C742.38,478.07,738,485.16,739.07,489.76Z"/><path class="cls-32" d="M550.66,526.51c4.46,6,11.54,10.75,19,10.1,9.1-.78,16.07-9.62,17-18.71s-3.19-18-8.78-25.27c-3-3.87-6.57-7.47-11.07-9.38C541.21,472.39,541.12,513.61,550.66,526.51Z"/><path class="cls-32" d="M529.49,475.19c3.53,1.1,7.35-.8,10.06-3.31,6.87-6.39,6.76-22.58-5.8-19C525.66,455.26,518.52,471.8,529.49,475.19Z"/><path class="cls-32" d="M484.42,438.71c-.45,4.87-.3,9.92,1.61,14.42s5.88,8.35,10.71,9.07c6.86,1,13-4.19,17.39-9.57,4.74-5.83,8.73-12.48,10.22-19.85s.2-15.55-4.63-21.31C500.23,388.23,485.86,423,484.42,438.71Z"/><path class="cls-32" d="M516.28,526.71c2.26,2.42,5.85,4.44,8.76,2.86,2.55-1.37,3.15-4.72,3.2-7.61a45.77,45.77,0,0,0-1.58-12.65c-1.82-6.74-9.35-14.33-14.95-6.39C506.8,509.87,511.17,521.28,516.28,526.71Z"/><path class="cls-33" d="M645.57,369.54c-17.2-22.11-60.6-13.18-96.92,19.94s-51.83,77.89-34.62,100,60.59,13.19,96.92-19.93S662.78,391.65,645.57,369.54Z"/><g class="cls-34"><path class="cls-35" d="M672.69,349.87A138.38,138.38,0,0,1,542.37,589.26,138.37,138.37,0,1,0,672.69,349.87Z"/></g></g><path class="cls-1" d="M441.83,66.77c5.34-.57,8.67-1.38,8.67-2.27s-3.16-1.66-8.27-2.23c0,.16,0,.32,0,.48A19.72,19.72,0,0,1,441.83,66.77Z"/><path class="cls-1" d="M403.28,62.11c-6,.58-9.78,1.44-9.78,2.39s4,1.85,10.21,2.43a19.83,19.83,0,0,1-.46-4.18C403.25,62.53,403.28,62.33,403.28,62.11Z"/><path class="cls-1" d="M403.28,62.11c0,.22,0,.42,0,.64a19.83,19.83,0,0,0,.46,4.18c5,.46,11.33.74,18.29.74a192.51,192.51,0,0,0,19.83-.9,19.72,19.72,0,0,0,.42-4c0-.16,0-.32,0-.48A191.68,191.68,0,0,0,422,61.33C414.83,61.33,408.29,61.63,403.28,62.11Z"/><path class="cls-1" d="M404.51,69.6A19.47,19.47,0,0,0,441,69.49c-5.66.43-12.14.68-19,.68C415.73,70.17,409.79,70,404.51,69.6Z"/><path class="cls-1" d="M442,59.59a19.47,19.47,0,0,0-38.42-.12c5.52-.4,11.79-.64,18.45-.64C429.28,58.83,436.09,59.11,442,59.59Z"/><path class="cls-36" d="M442,59.59a21.52,21.52,0,0,1,.26,2.68c5.11.57,8.27,1.36,8.27,2.23s-3.33,1.7-8.67,2.27a192.51,192.51,0,0,1-19.83.9c-7,0-13.34-.28-18.29-.74-6.24-.58-10.21-1.45-10.21-2.43s3.79-1.81,9.78-2.39a19.36,19.36,0,0,1,.27-2.64c-12.8,1-21.55,2.84-21.55,5s9.18,4.18,22.51,5.1c5.28.36,11.22.57,17.49.57,6.89,0,13.37-.25,19-.68,12.49-1,21-2.84,21-5S453.94,60.57,442,59.59Z"/><path class="cls-7" d="M393.67,251.33c-16.41,1-46.64-3-53.6-35.12-3.38-15.6-4.46-32.38-12.88-46a50,50,0,0,0-15.9-15.9c-39.84-25.3-82.62,20.7-132-6-73.42-39.69-44.66-128-186.72-152V563.2C32.44,537.9,6,487.71,45.79,462.41s66.32,24.9,106.16-.4,13.34-75.5,53.18-100.8,66.32,24.9,106.16-.4c14.34-9.11,21.37-23.86,24.87-41.09,3.16-15.62,4.17-26.23,14.67-38.05,17.16-19.34,43-17.74,43.75-18.5C395.67,262.06,396,251.19,393.67,251.33Z"/><path class="cls-37" d="M433.86,248.25c-22.13-3.14-44.68-35.66-89.77-6.34,11-3.25,25.33-4.55,36.19,2.78-6.4-.28-25.19-5-63,17.72h0c37.81,22.73,56.6,18,63,17.72-10.86,7.33-25.15,6-36.19,2.79,45.09,29.32,67.64-3.21,89.77-6.35Z"/><path class="cls-38" d="M361.07,261.67s28.67-20,72.79-13.42v28.32S393.92,284.5,361.07,261.67Z"/><path class="cls-39" d="M380.93,261.93s20.85-13.17,52.93-8.85v18.67S404.82,277,380.93,261.93Z"/><path class="cls-7" d="M575,261.65h-.74l.74,0h0A132.42,132.42,0,0,0,435.83,240l-8.31,3.58a35.71,35.71,0,0,0,.14,37.31l8.34,3.51A132.43,132.43,0,0,0,575,261.65Z"/><path class="cls-40" d="M437.82,239.16c-.66.27-1.33.53-2,.81l-8.31,3.58a35.71,35.71,0,0,0,.14,37.31l8.34,3.51c.67.28,1.33.53,2,.8a45.65,45.65,0,0,1-.18-46Z"/><path class="cls-6" d="M547.52,261.74a39.46,39.46,0,0,0,3.77,16.56A132.81,132.81,0,0,0,575,261.65h-.74l.74,0h0a132.42,132.42,0,0,0-23.8-16.47,39.47,39.47,0,0,0-3.64,16.42Z"/><path class="cls-41" d="M575,261.65h-.74l.74,0h0l-.34-.29-152.28.58a2.81,2.81,0,0,0,0,.29,35.94,35.94,0,0,0,5.33,18.65l8.34,3.51A132.43,132.43,0,0,0,575,261.65Z"/><g class="cls-42"><path class="cls-43" d="M575.05,261.59l-.74,0,.74,0h0l-.34-.29a191.66,191.66,0,0,1-147,19.52l8.34,3.51A132.43,132.43,0,0,0,575.05,261.59Z"/></g><path class="cls-44" d="M483,262.47a12.77,12.77,0,1,1,12.81,12.72A12.79,12.79,0,0,1,483,262.47Z"/><path class="cls-40" d="M507,262.38a11.25,11.25,0,1,1-11.29-11.21A11.24,11.24,0,0,1,507,262.38m3,0a14.29,14.29,0,1,0-14.23,14.34,14.31,14.31,0,0,0,14.23-14.34Z"/><path class="cls-45" d="M495.71,254.27a8.1,8.1,0,1,1-8,8.16A8.1,8.1,0,0,1,495.71,254.27Z"/><path class="cls-44" d="M516.72,263a7.11,7.11,0,1,1,7.14,7.09A7.13,7.13,0,0,1,516.72,263Z"/><path class="cls-40" d="M530.1,263a6.27,6.27,0,1,1-6.29-6.24A6.27,6.27,0,0,1,530.1,263m1.69,0a8,8,0,1,0-7.93,8,8,8,0,0,0,7.93-8Z"/><path class="cls-46" d="M523.78,258.48A4.51,4.51,0,1,1,519.3,263,4.5,4.5,0,0,1,523.78,258.48Z"/><path class="cls-44" d="M460,261.66a7.11,7.11,0,1,1,7.14,7.09A7.13,7.13,0,0,1,460,261.66Z"/><path class="cls-40" d="M473.35,261.61a6.27,6.27,0,1,1-6.29-6.24,6.27,6.27,0,0,1,6.29,6.24m1.69,0a8,8,0,1,0-7.93,8,8,8,0,0,0,7.93-8Z"/><path class="cls-47" d="M467,257.1a4.51,4.51,0,1,1-4.48,4.54A4.5,4.5,0,0,1,467,257.1Z"/><path class="cls-6" d="M440.77,237.94A161.56,161.56,0,0,1,479,229.49L466.94,223a45.17,45.17,0,0,0-31.6-4.12L414,224Z"/><g class="cls-42"><path class="cls-48" d="M442.18,237.25A138.41,138.41,0,0,1,474.87,230l-10.33-5.52a38.59,38.59,0,0,0-27-3.51l-18.24,4.3Z"/></g><path class="cls-6" d="M439.61,285.48a161.36,161.36,0,0,0,38.13,9.08l-12.21,6.26a45.07,45.07,0,0,1-31.66,3.59L412.59,299Z"/><g class="cls-42"><path class="cls-48" d="M441.79,286.56a143.67,143.67,0,0,0,34,8.1l-10.88,5.57a40.16,40.16,0,0,1-28.21,3.2l-18.95-4.8Z"/></g><rect class="cls-1" width="750" height="500"/></g><g id="Designed_by_Freepik" data-name="Designed by Freepik"><text class="cls-49" transform="translate(19.71 273.67)">Sal<tspan class="cls-50" x="56.55" y="0">t</tspan><tspan class="cls-51" x="70.16" y="0">o de tiempo</tspan></text></g></g></svg>